<svg xmlns="http://www.w3.org/2000/svg" viewBox="0 0 64 64" role="img" aria-labelledby="title">
  <title id="title">Pigeon Packet favicon</title>
  <rect width="64" height="64" rx="16" fill="#ffffff" />
  <g transform="translate(5 10) scale(0.145)" fill="#22308A">
    <path d="M95.3776 261.993C54.9729 268.235 7.80611 240.515 0.812824 193.994C-3.69102 164.034 10.8086 134.449 37.1919 119.157C40.1819 117.424 41.6364 115.558 42.1448 111.935C46.1422 83.44 65.4119 62.9728 92.7844 57.8699C99.0372 56.7042 105.446 56.5374 111.678 57.6617C115.283 58.3122 116.755 57.1714 118.164 54.1605C131.646 25.3664 154.458 8.43385 185.274 1.90961C230.078 -7.5762 275.908 19.1355 289.518 62.9919C291.547 69.5318 294.025 72.069 301.452 72.8093C364.292 79.0734 393.105 149.205 360.77 198.922C358.616 202.234 355.971 204.559 352.185 202.095C348.424 199.648 350.12 196.454 351.961 193.381C369.39 164.274 367.481 132.085 346.092 106.993C331.634 90.0326 312.89 81.8222 290.37 83.0926C284.979 83.3968 283.41 82.2236 282.129 76.1682C275.666 45.6346 257.392 25.0149 228.079 15.4314C186.558 1.85659 141.819 22.9265 126.13 62.98C123.219 70.4122 122.287 70.9232 114.685 69.1534C83.7287 61.9466 53.677 84.7979 52.5665 116.703C52.3816 122.015 50.2902 124.638 45.7766 126.991C21.3279 139.739 9.26177 160.421 10.7247 187.654C11.9246 209.99 23.7631 227.119 42.2768 239.513C60.8792 251.967 81.1783 255.064 102.944 250.503C109.036 249.227 113.202 245.228 117.792 241.707C120.936 239.295 124.03 236.817 127.204 234.322C125.759 232.076 123.424 231.915 121.535 231.084C112.923 227.296 105.647 221.977 101.011 213.581C98.54 209.106 96.703 204.466 99.0962 199.328C100.354 196.629 98.0921 195.867 96.6517 194.634C87.5053 186.8 80.8184 177.544 79.7641 165.103C79.239 158.907 79.88 153.04 85.8722 148.746C79.7558 140.585 74.8834 132.118 72.8221 122.337C71.0753 114.048 71.0382 105.818 73.7346 97.6919C75.3949 92.6882 78.7929 90.7113 83.2826 93.1414C109.5 107.332 137.973 114.865 166.65 121.842C185.423 126.409 201.16 135.682 212.756 151.429C213.135 151.943 213.718 152.307 214.607 153.098C218.606 150.264 221.239 146.23 224.254 142.583C230.933 134.503 237.18 126.067 245.506 119.456C262.901 105.643 286.224 106.564 300.184 121.814C304.925 126.993 307.854 133.154 309.128 139.955C309.709 143.053 311.115 144.415 313.898 145.495C320.495 148.057 324.104 153.849 323.903 160.75C323.795 164.459 322.623 166.2 316.786 171.027C321.373 181.696 326.021 192.525 330.681 203.348C333.249 209.312 335.946 215.224 338.36 221.249C339.433 223.928 340.96 225.997 343.733 226.692C357.975 230.264 362.621 239.223 360.678 253.533C359.411 262.858 360.309 272.5 360.525 281.994C360.62 286.182 359.19 288.778 355.363 290.682C343.435 296.619 331.605 302.757 319.839 309.009C316.534 310.765 313.673 310.787 310.44 309C299.216 302.794 287.927 296.704 276.645 290.602C274.056 289.202 272.75 287.199 272.758 284.181C272.799 269.017 272.795 253.853 272.721 238.689C272.705 235.356 274.278 233.217 277.254 232.291C284.631 229.998 287.627 224.8 289.274 217.465C292.371 203.674 296.476 190.11 300.139 176.445C300.561 174.871 300.837 173.259 301.275 171.225C296.514 171.258 295.103 174.615 293.704 177.622C288.151 189.555 282.624 201.498 276.03 212.906C265.418 231.266 252.71 247.809 234.937 259.905C207.919 278.292 178.8 281.04 148.117 271.307C141.304 269.145 134.536 266.715 128.003 263.832C119.289 259.986 110.537 258.632 101.264 261.227C99.5221 261.714 97.645 261.72 95.3776 261.993ZM118.946 218.235C125.703 222.87 133.382 224.95 141.325 226.265C143.849 226.683 145.761 227.763 146.28 230.44C146.749 232.858 145.678 234.642 143.686 235.938C142.01 237.029 140.284 238.046 138.647 239.192C133.382 242.882 127.672 246.003 122.552 251.455C132.521 254.991 141.793 258.567 151.245 261.576C176.075 269.481 200.192 268.308 223.095 254.98C237.925 246.35 249.343 234.175 259.24 220.308C271.515 203.11 278.93 183.259 289.81 165.315C290.564 164.071 290.136 162.721 290.239 161.413C290.625 156.475 291.663 151.437 295.834 148.527C300.15 145.515 299.8 142.228 298.351 138.213C297.15 134.886 295.545 131.836 293.131 129.201C282.326 117.406 264.833 116.852 251.268 128.142C238.864 138.466 230.146 152.089 219.66 164.13C215.067 169.405 211.765 169.359 208.22 163.217C200.757 150.285 189.886 141.421 176.133 135.881C169.777 133.32 163.181 131.572 156.55 129.969C135.162 124.797 113.98 119.033 93.9414 109.68C90.2514 107.957 86.8884 105.356 82.2952 104.701C80.5052 110.882 81.3415 116.695 83.0941 122.467C88.0129 138.667 98.5434 149.758 113.981 156.408C116.98 157.7 119.341 159.717 117.72 163.344C116.221 166.699 113.125 166.395 110.39 165.292C106.696 163.802 103.102 162.016 99.6053 160.102C96.7564 158.542 93.6874 156.514 90.8234 158.728C87.9455 160.954 89.1727 164.602 90.0277 167.58C93.4185 179.394 101.405 187.271 112.117 192.674C115.086 194.171 118.918 195.236 117.978 199.542C117.007 203.997 113.218 203.968 109.54 203.519C109.303 203.49 109.019 203.852 108.445 204.245C109.401 210.418 113.822 214.161 118.946 218.235ZM322.709 296.157C330.877 292.011 339.026 287.827 347.225 283.745C349.527 282.599 350.86 281.14 350.834 278.378C350.743 268.549 350.808 258.72 350.793 248.891C350.792 247.906 350.806 246.845 349.038 246.187C340.643 250.36 331.874 254.734 323.092 259.077C320.572 260.323 320.299 262.51 320.311 264.969C320.353 274.131 320.268 283.295 320.372 292.456C320.387 293.824 319.279 296.037 322.709 296.157ZM296.63 221.025C297.911 222.464 299.097 221.293 300.183 220.78C303.491 219.217 306.806 217.644 309.989 215.847C313.325 213.964 316.484 213.779 319.917 215.617C322.421 216.959 325.134 217.91 329.017 219.578C322.205 203.662 316.024 189.222 309.844 174.783C309.45 174.804 309.055 174.826 308.661 174.847C304.613 190.025 300.564 205.203 296.63 221.025ZM311.544 155.447C305.457 152.845 301.902 154.299 301.15 159.816C304.176 160.828 307.305 160.297 310.372 160.223C313.949 160.138 314.283 158.44 311.544 155.447Z"/>
    <path d="M278.099 145.632C273.021 148.791 268.904 148.064 266.862 143.987C264.976 140.224 266.797 135.774 270.82 134.157C273.67 133.012 276.093 133.748 278.03 135.898C280.719 138.882 280.944 142.097 278.099 145.632Z"/>
  </g>
</svg>
