<svg xmlns="http://www.w3.org/2000/svg" viewBox="0 0 240 240" role="img" aria-labelledby="title desc">
  <title id="title">付款 QR Code 範例</title>
  <desc id="desc">示意用的假銀行收款 QR Code，僅供版面展示。</desc>
  <rect width="240" height="240" fill="#f5f7fb"/>
  <rect x="16" y="16" width="208" height="208" rx="16" fill="#ffffff" stroke="#dce4ea" stroke-width="8"/>
  <g fill="#14212b">
    <rect x="36" y="36" width="48" height="48" rx="6"/>
    <rect x="44" y="44" width="32" height="32" fill="#ffffff"/>
    <rect x="52" y="52" width="16" height="16"/>
    <rect x="156" y="36" width="48" height="48" rx="6"/>
    <rect x="164" y="44" width="32" height="32" fill="#ffffff"/>
    <rect x="172" y="52" width="16" height="16"/>
    <rect x="36" y="156" width="48" height="48" rx="6"/>
    <rect x="44" y="164" width="32" height="32" fill="#ffffff"/>
    <rect x="52" y="172" width="16" height="16"/>
    <rect x="104" y="40" width="12" height="12"/>
    <rect x="120" y="40" width="12" height="12"/>
    <rect x="104" y="56" width="12" height="12"/>
    <rect x="128" y="56" width="12" height="12"/>
    <rect x="96" y="72" width="12" height="12"/>
    <rect x="120" y="72" width="12" height="12"/>
    <rect x="104" y="96" width="12" height="12"/>
    <rect x="120" y="96" width="12" height="12"/>
    <rect x="136" y="96" width="12" height="12"/>
    <rect x="152" y="96" width="12" height="12"/>
    <rect x="168" y="96" width="12" height="12"/>
    <rect x="184" y="96" width="12" height="12"/>
    <rect x="96" y="112" width="12" height="12"/>
    <rect x="128" y="112" width="12" height="12"/>
    <rect x="152" y="112" width="12" height="12"/>
    <rect x="184" y="112" width="12" height="12"/>
    <rect x="96" y="128" width="12" height="12"/>
    <rect x="112" y="128" width="12" height="12"/>
    <rect x="136" y="128" width="12" height="12"/>
    <rect x="160" y="128" width="12" height="12"/>
    <rect x="184" y="128" width="12" height="12"/>
    <rect x="104" y="144" width="12" height="12"/>
    <rect x="128" y="144" width="12" height="12"/>
    <rect x="152" y="144" width="12" height="12"/>
    <rect x="176" y="144" width="12" height="12"/>
    <rect x="96" y="160" width="12" height="12"/>
    <rect x="120" y="160" width="12" height="12"/>
    <rect x="136" y="160" width="12" height="12"/>
    <rect x="160" y="160" width="12" height="12"/>
    <rect x="184" y="160" width="12" height="12"/>
    <rect x="96" y="176" width="12" height="12"/>
    <rect x="112" y="176" width="12" height="12"/>
    <rect x="144" y="176" width="12" height="12"/>
    <rect x="168" y="176" width="12" height="12"/>
    <rect x="192" y="176" width="12" height="12"/>
    <rect x="96" y="192" width="12" height="12"/>
    <rect x="128" y="192" width="12" height="12"/>
    <rect x="152" y="192" width="12" height="12"/>
    <rect x="176" y="192" width="12" height="12"/>
  </g>
</svg>
